<?xml version="1.0" encoding="UTF-8" standalone="no"?>
<svg
   xmlns:dc="http://purl.org/dc/elements/1.1/"
   xmlns:cc="http://creativecommons.org/ns#"
   xmlns:rdf="http://www.w3.org/1999/02/22-rdf-syntax-ns#"
   xmlns:svg="http://www.w3.org/2000/svg"
   xmlns="http://www.w3.org/2000/svg"
   xmlns:sodipodi="http://sodipodi.sourceforge.net/DTD/sodipodi-0.dtd"
   xmlns:inkscape="http://www.inkscape.org/namespaces/inkscape"
   id="Layer_1"
   data-name="Layer 1"
   viewBox="0 0 59.931228 65.32"
   version="1.1"
   sodipodi:docname="ux-capture-logo-up.svg"
   width="59.931229"
   height="65.32"
   inkscape:version="0.92.2 5c3e80d, 2017-08-06">
  <metadata
     id="metadata38">
    <rdf:RDF>
      <cc:Work
         rdf:about="">
        <dc:format>image/svg+xml</dc:format>
        <dc:type
           rdf:resource="http://purl.org/dc/dcmitype/StillImage" />
        <dc:title>UX Capture Logo</dc:title>
      </cc:Work>
    </rdf:RDF>
  </metadata>
  <sodipodi:namedview
     pagecolor="#ffffff"
     bordercolor="#666666"
     borderopacity="1"
     objecttolerance="10"
     gridtolerance="10"
     guidetolerance="10"
     inkscape:pageopacity="0"
     inkscape:pageshadow="2"
     inkscape:window-width="1370"
     inkscape:window-height="848"
     id="namedview36"
     showgrid="false"
     fit-margin-top="0"
     fit-margin-left="0"
     fit-margin-right="0"
     fit-margin-bottom="0"
     inkscape:zoom="2.7217161"
     inkscape:cx="-58.124661"
     inkscape:cy="21.965"
     inkscape:window-x="0"
     inkscape:window-y="0"
     inkscape:window-maximized="0"
     inkscape:current-layer="Layer_1" />
  <defs
     id="defs23">
    <style
       id="style21">.cls-1{fill:#fff;}.cls-2{fill:#8cb0dd;}.cls-3{fill:#b0d79b;}.cls-4{fill:#eabf92;}</style>
  </defs>
  <title
     id="title25">UX Capture Logo</title>
  <path
     class="cls-2"
     d="M 47.5,30.88 A 19.85,19.85 0 0 0 47.39,28.82 L 39.7,32.76 A 11.46,11.46 0 1 1 28.4,19.42 11.29,11.29 0 0 1 32.95,20.36 V 5 5 0 h -9.12 v 2 10.33 a 19.1,19.1 0 1 0 23.58,20.43 v 0 c 0.06,-0.62 0.09,-1.25 0.09,-1.88 z"
     id="path29"
     inkscape:connector-curvature="0"
     style="fill:#8cb0dd" />
  <path
     class="cls-3"
     d="m 51.04,49.999999 7.72,-7.73 A 4.47,4.47 0 0 0 52.45,35.95 L 44.7,43.659999 36.97,35.93 a 4.47,4.47 0 0 0 -6.27,6.319999 l 7.71,7.75 -7.71,7.7 a 4.47,4.47 0 0 0 6.29,6.3 l 7.71,-7.71 7.75,7.71 a 4.47,4.47 0 0 0 6.31,-6.32 z"
     id="path31"
     inkscape:connector-curvature="0"
     style="fill:#b0d79b" />
  <path
     class="cls-4"
     d="m 24.04,34.63 a 3.35,3.35 0 0 0 -3.34,3.369999 v 14.67 c 0,3.29 -3.12,6 -7,6 -3.88,0 -7,-2.67 -7,-6 v -14.67 a 3.35,3.35 0 0 0 -6.7,0 v 15.65 c 0,6.45 6.12,11.67 13.68,11.67 7.56,0 13.71,-5.22 13.71,-11.67 v -15.65 A 3.35,3.35 0 0 0 24.04,34.63 Z"
     id="path33"
     inkscape:connector-curvature="0"
     style="fill:#eabf92" />
</svg>
